<?xml version="1.0" encoding="utf-8"?>
<!-- Generator: Adobe Illustrator 16.0.0, SVG Export Plug-In . SVG Version: 6.00 Build 0)  -->
<!DOCTYPE svg PUBLIC "-//W3C//DTD SVG 1.1//EN" "http://www.w3.org/Graphics/SVG/1.1/DTD/svg11.dtd">
<svg version="1.1" id="图层_1" xmlns="http://www.w3.org/2000/svg" xmlns:xlink="http://www.w3.org/1999/xlink" x="0px" y="0px"
	 width="300px" height="300px" viewBox="0 0 300 300" enable-background="new 0 0 300 300" xml:space="preserve">
<polygon id="Connector_x5F_Medium_x5F_12_1_" fill="#040000" points="13.134,94.962 11.729,96.366 11.025,96.366 11.025,93.558 
	11.729,92.853 11.729,87.933 12.432,87.23 12.432,66.848 51.088,28.192 51.088,27.49 56.71,21.865 58.116,21.865 61.631,18.352 
	155.107,18.352 155.811,17.649 157.919,17.649 158.622,16.947 279.51,16.947 280.212,17.649 285.834,17.649 287.241,16.243 
	290.755,16.243 292.159,17.649 292.159,18.352 278.806,18.352 278.104,17.649 165.649,17.649 164.244,19.054 61.631,19.054 
	53.9,26.785 53.196,26.785 13.134,66.848 "/>
</svg>
