<?xml version="1.0" encoding="utf-8"?>
<!-- Generator: Adobe Illustrator 16.0.0, SVG Export Plug-In . SVG Version: 6.00 Build 0)  -->
<!DOCTYPE svg PUBLIC "-//W3C//DTD SVG 1.1//EN" "http://www.w3.org/Graphics/SVG/1.1/DTD/svg11.dtd">
<svg version="1.1" id="图层_1" xmlns="http://www.w3.org/2000/svg" xmlns:xlink="http://www.w3.org/1999/xlink" x="0px" y="0px"
	 width="300px" height="300px" viewBox="0 0 300 300" enable-background="new 0 0 300 300" xml:space="preserve">
<g>
	<path fill="#AEDDE9" stroke="#FFFFFF" stroke-miterlimit="10" d="M228.991,10H24.433C12.32,10,2.5,15.748,2.5,22.838v254.324
		c0,7.09,9.82,12.838,21.934,12.838h236.133c12.113,0,21.934-5.748,21.934-12.838V41.319L228.991,10z"/>
</g>
<g>
	<path fill="#AEDDE9" stroke="#FFFFFF" stroke-miterlimit="10" d="M228.991,0H24.433C12.32,0,2.5,5.748,2.5,12.838v254.324
		c0,7.09,9.82,12.838,21.934,12.838h236.133c12.113,0,21.934-5.748,21.934-12.838V31.319L228.991,0z"/>
</g>
<g>
	<polygon fill="#AEDDE9" stroke="#FFFFFF" stroke-miterlimit="10" points="299.998,25.826 299.998,0 255.874,0 295.718,23.32 	"/>
	<path fill="#AEDDE9" stroke="#FFFFFF" stroke-miterlimit="10" d="M242.669,0H23.5C10.522,0,0,6.158,0,13.755v272.49
		C0,293.842,10.522,300,23.5,300h253c12.978,0,23.5-6.158,23.5-13.755V33.557L242.669,0z"/>
</g>
</svg>
