<?xml version="1.0" encoding="utf-8"?>
<!-- Generator: Adobe Illustrator 16.0.0, SVG Export Plug-In . SVG Version: 6.00 Build 0)  -->
<!DOCTYPE svg PUBLIC "-//W3C//DTD SVG 1.1//EN" "http://www.w3.org/Graphics/SVG/1.1/DTD/svg11.dtd">
<svg version="1.1" id="图层_1" xmlns="http://www.w3.org/2000/svg" xmlns:xlink="http://www.w3.org/1999/xlink" x="0px" y="0px"
	 width="300px" height="300px" viewBox="0 0 300 300" enable-background="new 0 0 300 300" xml:space="preserve">
<polygon fill="#FFFFFF" stroke="#FFFFFF" stroke-miterlimit="10" points="27.252,0 134.218,0 142.776,6.713 274.342,6.713 
	300.014,16.835 300.014,42.561 289.318,52.063 289.318,94.344 282.899,100 282.899,48.337 291.457,39.672 291.457,21.917 
	272.202,12.559 224.068,12.559 218.722,14.5 194.118,14.5 198.397,12.559 179.143,12.559 172.726,14.5 135.288,14.5 126.731,5.123 
	15.486,5.123 "/>
<polygon fill="#FFFFFF" stroke="#FFFFFF" stroke-miterlimit="10" points="272.793,300 165.816,300 157.256,293.286 25.674,293.286 
	0,283.165 0,257.44 10.698,247.938 10.698,205.655 17.116,200 17.116,251.664 8.557,260.328 8.557,278.084 27.814,287.441 
	75.954,287.441 81.302,285.5 105.907,285.5 101.628,287.441 120.884,287.441 127.302,285.5 164.744,285.5 173.303,294.878 
	284.559,294.878 "/>
<line fill="#FFFFFF" stroke="#FFFFFF" stroke-miterlimit="10" x1="15.5" y1="29.44" x2="15.5" y2="183.25"/>
<line fill="#FFFFFF" stroke="#FFFFFF" stroke-miterlimit="10" x1="284.559" y1="120.75" x2="284.559" y2="279.25"/>
</svg>
