<?xml version="1.0" encoding="utf-8"?>
<!-- Generator: Adobe Illustrator 16.0.0, SVG Export Plug-In . SVG Version: 6.00 Build 0)  -->
<!DOCTYPE svg PUBLIC "-//W3C//DTD SVG 1.1//EN" "http://www.w3.org/Graphics/SVG/1.1/DTD/svg11.dtd">
<svg version="1.1" id="图层_1" xmlns="http://www.w3.org/2000/svg" xmlns:xlink="http://www.w3.org/1999/xlink" x="0px" y="0px"
	 width="300px" height="300px" viewBox="0 0 300 300" enable-background="new 0 0 300 300" xml:space="preserve">
<polygon fill="#FFFFFF" stroke="#FFFFFF" stroke-width="2.367" stroke-miterlimit="10" points="32.128,4.301 136.274,4.301 
	144.606,13.755 272.705,13.755 297.7,28.01 297.7,64.239 287.286,77.622 287.286,137.17 281.037,145.135 281.037,72.375 
	289.369,60.172 289.369,35.167 270.622,21.987 223.757,21.987 218.55,24.722 194.597,24.722 198.762,21.987 180.016,21.987 
	173.767,24.722 137.316,24.722 128.985,11.516 20.673,11.516 "/>
<polygon fill="#FFFFFF" stroke="#FFFFFF" stroke-width="2.367" stroke-miterlimit="10" points="268.539,297.509 164.395,297.509 
	156.063,288.054 27.963,288.054 2.968,273.799 2.968,237.57 13.383,224.188 13.383,164.64 19.631,156.675 19.631,229.436 
	11.299,241.638 11.299,266.643 30.046,279.821 76.911,279.821 82.119,277.088 106.072,277.088 101.907,279.821 120.653,279.821 
	126.901,277.088 163.352,277.088 171.684,290.295 279.995,290.295 "/>
<line fill="#FFFFFF" stroke="#FFFFFF" stroke-width="2.367" stroke-miterlimit="10" x1="33.224" y1="34.44" x2="33.224" y2="258.143"/>
<line fill="#FFFFFF" stroke="#FFFFFF" stroke-width="2.367" stroke-miterlimit="10" x1="268.205" y1="136.528" x2="268.205" y2="275.013"/>
<polygon fill="#FFFFFF" stroke="#FFFFFF" stroke-miterlimit="10" points="139.307,46.433 56.323,46.433 56.323,18.486 
	122.914,18.486 "/>
</svg>
