<?xml version="1.0" encoding="utf-8"?>
<!-- Generator: Adobe Illustrator 16.0.0, SVG Export Plug-In . SVG Version: 6.00 Build 0)  -->
<!DOCTYPE svg PUBLIC "-//W3C//DTD SVG 1.1//EN" "http://www.w3.org/Graphics/SVG/1.1/DTD/svg11.dtd">
<svg version="1.1" id="图层_1" xmlns="http://www.w3.org/2000/svg" xmlns:xlink="http://www.w3.org/1999/xlink" x="0px" y="0px"
	 width="300px" height="300px" viewBox="0 0 300 300" enable-background="new 0 0 300 300" xml:space="preserve">
<g>
	<path fill="#FFFFFF" d="M46.646,124.263c-1.88-2.635-2.012-5.103-0.768-8.261c3.07-7.828,5.505-15.872,8.15-23.826
		c0.636-1.791,0.794-3.914,1.906-5.294c2.143-2.608,2.064-5.41,2.064-8.39c-0.079-9.707,1.165-19.196,3.599-28.66
		c2.911-11.178,6.615-15.309,18.79-20.257c-1.218,3.798-2.382,7.239-3.731,11.382c1.481-0.613,2.408-1.048,3.333-1.342
		c2.991-0.985,5.611-2.367,9.131-2.34c3.413,0.012,6.801-2.367,10.4-3.786c0.794,0.575,1.8,1.329,3.202,2.29
		c1.112-0.96,2.354-1.804,3.281-2.877c2.964-3.53,6.88-5.718,11.142-7.469c8.97-3.659,17.995-7.315,26.888-11.178
		c4.047-1.751,7.778-1.765,11.854,0c8.891,3.862,17.916,7.405,26.834,11.241c2.752,1.189,5.529,2.545,7.859,4.336
		c2.197,1.662,3.891,3.99,5.953,6.189c1.67-1.1,2.885-1.867,4.023-2.622c4.34,1.752,8.15,4.271,13.363,3.978
		c2.832-0.154,5.85,2.149,9.342,3.581c-1.35-4.13-2.514-7.583-3.996-12.124c4.314,2.495,7.729,4.234,10.824,6.343
		c4.525,3.107,6.432,7.929,7.807,12.802c1.482,5.231,2.912,10.5,2.912,16.051c0.023,5.883,0.688,11.765,1.164,17.622
		c0.053,1.023,0.158,2.149,0.635,3.007c4.182,7.225,5.293,15.474,8.467,23.02c1.111,2.698,1.563,5.716,2.912,8.3
		c1.588,3.068,1.059,5.562-0.688,8.286c-1.799,2.84-3.758,5.729-4.791,8.861c-1.111,3.364-1.189,7.01-1.826,11.076
		c-1.719,0.756-3.863,1.676-4.869,2.123c-2.91,3.555-4.895,6.561-7.488,8.979c-5.664,5.307-6.299,11.892-5.268,18.708
		c0.32,1.814,2.965,3.301,5.002,5.385c-1.189,4.861-2.672,10.309-3.891,15.807c-1.375,6.088-5.213,10.398-10.082,14.223
		c-4.736,3.719-9.129,7.813-13.893,11.93c2.779,2.176,5.107,3.99,7.357,5.781c3.359,0.18,5.98-3.914,10.268-1.227
		c-2.17,1.854-4.102,3.402-5.9,5.09c-5.639,5.279-11.301,10.512-16.752,15.947c-7.146,7.123-14.133,14.426-21.172,21.65
		c-0.768,0.768-2.037,1.535-2.064,2.379c-0.264,4.553-3.811,6.139-7.092,8.275c-3.467,2.199-6.563,4.887-10.373,7.787
		c-5.955,0-12.491,0.092-19.028-0.063c-1.401-0.039-2.937-0.705-4.101-1.496c-4.102-2.775-8.098-5.703-12.066-8.621
		c-0.848-0.613-1.932-1.406-2.092-2.275c-1.031-5.396-5.558-8.414-8.891-12.123c-5.188-5.705-11.063-10.846-16.434-16.422
		c-6.67-6.918-13.629-13.543-21.991-19.963c1.667-0.551,2.831-1.33,3.704-1.137c2.091,0.484,4.049,1.441,6.458,2.352
		c2.303-1.754,4.763-3.633,7.753-5.896c-4.816-4.143-9.208-8.25-13.945-11.957c-4.87-3.811-8.706-8.135-10.083-14.221
		c-1.216-5.5-2.699-10.947-3.89-15.834c2.038-2.07,4.736-3.566,4.948-5.357c0.477-3.889,0.266-8.045-0.768-11.815
		c-0.714-2.674-3.202-4.912-5.001-7.266c-1.878-2.467-3.917-4.834-5.875-7.237c0-0.32,0.052-0.627,0.079-0.934
		c-1.984-0.807-3.969-1.639-6.245-2.561c-0.133-1.406-0.345-2.85-0.319-4.271c0-4.564-1.242-8.721-3.995-12.455
		C47.942,126.462,47.36,125.298,46.646,124.263z"/>
	<g>
		<path stroke="#000000" stroke-miterlimit="10" d="M201.804,188.672c-12.252,1.018-13.048,1.06-17.941,13.087
			c1.428-0.264,2.857-0.146,3.81-0.768c4.366-2.846,8.574-5.861,12.729-8.944C201.089,191.543,201.168,190.259,201.804,188.672z"/>
		<path stroke="#000000" stroke-miterlimit="10" d="M188.255,118.669c1.666,1.747,3.307,3.467,4.922,5.214
			c1.692,1.852,3.281,3.771,4.922,5.663c0.424-0.199,0.793-0.411,1.217-0.622c0-2.739,0-5.505,0-8.111
			C193.731,114.991,193.731,114.991,188.255,118.669z"/>
		<path stroke="#000000" stroke-miterlimit="10" d="M174.185,149.47c1.323,1.377,2.62,2.766,3.838,4.063
			c3.439-1.072,5.901-2.949,8.309-5.332c-0.819-1.694-1.587-3.188-2.566-5.161C179.479,144.23,176.487,146.07,174.185,149.47z"/>
		<path stroke="#000000" stroke-miterlimit="10" d="M175.631,178.84c0.716,0.082,1.402,0.371,1.959,0.159
			c7.859-3.069,15.692-6.033,24.293-6.641c4.499-0.292,7.252-2.965,8.177-7.809c1.033-5.45,2.806-10.729,4.58-17.24
			c-6.854,5.821-12.836,10.836-19.98,14.277C186.693,165.411,180.076,170.849,175.631,178.84z"/>
		<path stroke="#000000" stroke-miterlimit="10" d="M128.326,204.283c-2.752-8.085-7.541-13.549-17.942-12.345
			c0.556,1.401,0.662,2.672,1.349,3.189c3.97,2.976,8.099,5.715,12.121,8.625C125.415,204.866,126.923,205.275,128.326,204.283z"/>
		<path stroke="#000000" stroke-miterlimit="10" d="M106.587,132.661c0.396,0.079,0.819,0.172,1.19,0.252
			c3.309-3.653,6.59-7.318,9.872-11.009c-5.822-3.335-5.822-3.335-11.062,2.434C106.587,127.184,106.587,129.922,106.587,132.661z"
			/>
		<path stroke="#000000" stroke-miterlimit="10" d="M124.301,144.465c-0.926,1.681-1.747,3.295-2.911,5.438
			c3.229,2.013,5.716,3.534,8.31,5.161c1.561-1.721,2.805-3.096,4.102-4.524C131.288,147.337,128.456,145.232,124.301,144.465z"/>
		<path stroke="#000000" stroke-miterlimit="10" d="M92.233,150c1.853,6.71,3.625,12.001,4.658,17.452
			c0.979,5.174,4.075,7.649,8.813,7.954c7.938,0.501,15.189,3.281,22.467,6.033c0.953,0.358,1.958,0.436,3.732,0.807
			c-4.103-5.558-7.357-10.639-12.834-13.747C109.99,163.299,100.728,158.336,92.233,150z"/>
	</g>
	<g>
		<path fill="none" stroke="#000000" stroke-width="2" stroke-miterlimit="10" d="M118.612,104.781"/>
		<path d="M118.612,104.781"/>
	</g>
	<g>
		<path fill="none" stroke="#000000" stroke-width="2" stroke-miterlimit="10" d="M150,101.501"/>
		<polyline fill="none" stroke="#000000" stroke-width="2" stroke-miterlimit="10" points="153.804,72.362 149.095,72.383 
			141.063,85.804 149.22,99.153 153.928,99.131 		"/>
		<path fill="none" stroke="#000000" stroke-width="2" stroke-miterlimit="10" d="M163.201,76.707h-11.163l-5.583,9.488l5.583,9.489
			h11.163l5.581-9.489L163.201,76.707z M159.859,90.004h-4.481l-2.239-3.809l2.239-3.808h4.481l2.241,3.808L159.859,90.004z"/>
		
			<line fill="#FFFFFF" stroke="#FFFFFF" stroke-width="2" stroke-miterlimit="10" x1="153.075" y1="69.57" x2="135.994" y2="98.038"/>
		<polygon stroke="#000000" stroke-miterlimit="10" points="128.849,101.134 153.873,58.74 152.579,58.74 125.75,104.658 
			179.714,104.781 177.62,101.134 		"/>
		<line stroke="#FFFFFF" stroke-width="2" stroke-miterlimit="10" x1="159.108" y1="73.517" x2="169.992" y2="92.175"/>
	</g>
</g>
</svg>
